<?xml version="1.0" encoding="utf-8"?>
<!-- Generator: Adobe Illustrator 23.0.3, SVG Export Plug-In . SVG Version: 6.00 Build 0)  -->
<svg version="1.1" id="Layer_1" xmlns="http://www.w3.org/2000/svg" xmlns:xlink="http://www.w3.org/1999/xlink" x="0px"
     y="0px"
     viewBox="0 0 129.4 129.4" style="enable-background:new 0 0 129.4 129.4;" xml:space="preserve">
<style type="text/css">
	.st1{fill:#1877F2;}
	.st2{fill:#FFFFFF;}
</style>
    <title>FBLive_Hex-RGB-BRC-Site</title>
    <g>
		<path class="st1" d="M129.3,64.7c0-35.7-28.9-64.6-64.6-64.6S0,29,0,64.7c0,32.3,23.7,59,54.6,63.9V83.4H38.1V64.7h16.5l0-14.2
			c0-16.2,9.6-25.2,24.4-25.2c7.1,0,14.4,1.4,14.4,1.4v15.8h-8.1c-8,0-10.6,5-10.6,10.1l0,12.1h18l-2.9,18.7H74.7v45.2
			C105.6,123.8,129.3,97,129.3,64.7z"/>
        <path class="st2" d="M89.8,83.4l2.9-18.7h-18l0-12.1c0-5.1,2.6-10.1,10.6-10.1h8.1V26.7c0,0-7.3-1.4-14.4-1.4
			c-14.8,0-24.4,9-24.4,25.2l0,14.2H38.1v18.7h16.5v45.2c3.3,0.5,6.6,0.8,10.1,0.8c3.4,0,6.8-0.3,10.1-0.8V83.4H89.8z"/>
	</g>
</svg>
